<mxfile host="65bd71144e">
    <diagram id="DKFJayGLP2oGCjJ00Zy6" name="PÃ¡gina-1">
        <mxGraphModel dx="1280" dy="866" grid="1" gridSize="10" guides="1" tooltips="1" connect="1" arrows="1" fold="1" page="1" pageScale="1" pageWidth="1169" pageHeight="827" math="0" shadow="0">
            <root>
                <mxCell id="0"/>
                <mxCell id="1" parent="0"/>
                <mxCell id="2" value="Cliente" style="swimlane;fontStyle=0;childLayout=stackLayout;horizontal=1;startSize=26;fillColor=none;horizontalStack=0;resizeParent=1;resizeParentMax=0;resizeLast=0;collapsible=1;marginBottom=0;" parent="1" vertex="1">
                    <mxGeometry x="190" y="340" width="170" height="364" as="geometry"/>
                </mxCell>
                <mxCell id="3" value="_id: ObjectId" style="text;strokeColor=none;fillColor=none;align=left;verticalAlign=top;spacingLeft=4;spacingRight=4;overflow=hidden;rotatable=0;points=[[0,0.5],[1,0.5]];portConstraint=eastwest;" parent="2" vertex="1">
                    <mxGeometry y="26" width="170" height="26" as="geometry"/>
                </mxCell>
                <mxCell id="4" value="nome: String" style="text;strokeColor=none;fillColor=none;align=left;verticalAlign=top;spacingLeft=4;spacingRight=4;overflow=hidden;rotatable=0;points=[[0,0.5],[1,0.5]];portConstraint=eastwest;" parent="2" vertex="1">
                    <mxGeometry y="52" width="170" height="26" as="geometry"/>
                </mxCell>
                <mxCell id="38" value="cpf: String" style="text;strokeColor=none;fillColor=none;align=left;verticalAlign=top;spacingLeft=4;spacingRight=4;overflow=hidden;rotatable=0;points=[[0,0.5],[1,0.5]];portConstraint=eastwest;" parent="2" vertex="1">
                    <mxGeometry y="78" width="170" height="26" as="geometry"/>
                </mxCell>
                <mxCell id="39" value="data_nascimento: DateTime?" style="text;strokeColor=none;fillColor=none;align=left;verticalAlign=top;spacingLeft=4;spacingRight=4;overflow=hidden;rotatable=0;points=[[0,0.5],[1,0.5]];portConstraint=eastwest;" parent="2" vertex="1">
                    <mxGeometry y="104" width="170" height="26" as="geometry"/>
                </mxCell>
                <mxCell id="40" value="email: String" style="text;strokeColor=none;fillColor=none;align=left;verticalAlign=top;spacingLeft=4;spacingRight=4;overflow=hidden;rotatable=0;points=[[0,0.5],[1,0.5]];portConstraint=eastwest;" parent="2" vertex="1">
                    <mxGeometry y="130" width="170" height="26" as="geometry"/>
                </mxCell>
                <mxCell id="41" value="logradouro: String" style="text;strokeColor=none;fillColor=none;align=left;verticalAlign=top;spacingLeft=4;spacingRight=4;overflow=hidden;rotatable=0;points=[[0,0.5],[1,0.5]];portConstraint=eastwest;" parent="2" vertex="1">
                    <mxGeometry y="156" width="170" height="26" as="geometry"/>
                </mxCell>
                <mxCell id="42" value="num_casa: String" style="text;strokeColor=none;fillColor=none;align=left;verticalAlign=top;spacingLeft=4;spacingRight=4;overflow=hidden;rotatable=0;points=[[0,0.5],[1,0.5]];portConstraint=eastwest;" parent="2" vertex="1">
                    <mxGeometry y="182" width="170" height="26" as="geometry"/>
                </mxCell>
                <mxCell id="43" value="complemento: String?" style="text;strokeColor=none;fillColor=none;align=left;verticalAlign=top;spacingLeft=4;spacingRight=4;overflow=hidden;rotatable=0;points=[[0,0.5],[1,0.5]];portConstraint=eastwest;" parent="2" vertex="1">
                    <mxGeometry y="208" width="170" height="26" as="geometry"/>
                </mxCell>
                <mxCell id="44" value="bairro: String" style="text;strokeColor=none;fillColor=none;align=left;verticalAlign=top;spacingLeft=4;spacingRight=4;overflow=hidden;rotatable=0;points=[[0,0.5],[1,0.5]];portConstraint=eastwest;" parent="2" vertex="1">
                    <mxGeometry y="234" width="170" height="26" as="geometry"/>
                </mxCell>
                <mxCell id="45" value="municipio: String" style="text;strokeColor=none;fillColor=none;align=left;verticalAlign=top;spacingLeft=4;spacingRight=4;overflow=hidden;rotatable=0;points=[[0,0.5],[1,0.5]];portConstraint=eastwest;" parent="2" vertex="1">
                    <mxGeometry y="260" width="170" height="26" as="geometry"/>
                </mxCell>
                <mxCell id="46" value="uf: String" style="text;strokeColor=none;fillColor=none;align=left;verticalAlign=top;spacingLeft=4;spacingRight=4;overflow=hidden;rotatable=0;points=[[0,0.5],[1,0.5]];portConstraint=eastwest;" parent="2" vertex="1">
                    <mxGeometry y="286" width="170" height="26" as="geometry"/>
                </mxCell>
                <mxCell id="47" value="cep: String" style="text;strokeColor=none;fillColor=none;align=left;verticalAlign=top;spacingLeft=4;spacingRight=4;overflow=hidden;rotatable=0;points=[[0,0.5],[1,0.5]];portConstraint=eastwest;" parent="2" vertex="1">
                    <mxGeometry y="312" width="170" height="26" as="geometry"/>
                </mxCell>
                <mxCell id="5" value="celular: String" style="text;strokeColor=none;fillColor=none;align=left;verticalAlign=top;spacingLeft=4;spacingRight=4;overflow=hidden;rotatable=0;points=[[0,0.5],[1,0.5]];portConstraint=eastwest;" parent="2" vertex="1">
                    <mxGeometry y="338" width="170" height="26" as="geometry"/>
                </mxCell>
                <mxCell id="6" value="Produto" style="swimlane;fontStyle=0;childLayout=stackLayout;horizontal=1;startSize=26;fillColor=none;horizontalStack=0;resizeParent=1;resizeParentMax=0;resizeLast=0;collapsible=1;marginBottom=0;" parent="1" vertex="1">
                    <mxGeometry x="500" y="270" width="140" height="234" as="geometry"/>
                </mxCell>
                <mxCell id="7" value="_id: ObjectId" style="text;strokeColor=none;fillColor=none;align=left;verticalAlign=top;spacingLeft=4;spacingRight=4;overflow=hidden;rotatable=0;points=[[0,0.5],[1,0.5]];portConstraint=eastwest;" parent="6" vertex="1">
                    <mxGeometry y="26" width="140" height="26" as="geometry"/>
                </mxCell>
                <mxCell id="8" value="nome: String" style="text;strokeColor=none;fillColor=none;align=left;verticalAlign=top;spacingLeft=4;spacingRight=4;overflow=hidden;rotatable=0;points=[[0,0.5],[1,0.5]];portConstraint=eastwest;" parent="6" vertex="1">
                    <mxGeometry y="52" width="140" height="26" as="geometry"/>
                </mxCell>
                <mxCell id="48" value="marca: String" style="text;strokeColor=none;fillColor=none;align=left;verticalAlign=top;spacingLeft=4;spacingRight=4;overflow=hidden;rotatable=0;points=[[0,0.5],[1,0.5]];portConstraint=eastwest;" parent="6" vertex="1">
                    <mxGeometry y="78" width="140" height="26" as="geometry"/>
                </mxCell>
                <mxCell id="49" value="especificacao: String?" style="text;strokeColor=none;fillColor=none;align=left;verticalAlign=top;spacingLeft=4;spacingRight=4;overflow=hidden;rotatable=0;points=[[0,0.5],[1,0.5]];portConstraint=eastwest;" parent="6" vertex="1">
                    <mxGeometry y="104" width="140" height="26" as="geometry"/>
                </mxCell>
                <mxCell id="50" value="unidade_medida: String" style="text;strokeColor=none;fillColor=none;align=left;verticalAlign=top;spacingLeft=4;spacingRight=4;overflow=hidden;rotatable=0;points=[[0,0.5],[1,0.5]];portConstraint=eastwest;" parent="6" vertex="1">
                    <mxGeometry y="130" width="140" height="26" as="geometry"/>
                </mxCell>
                <mxCell id="51" value="preco_unitario: Number" style="text;strokeColor=none;fillColor=none;align=left;verticalAlign=top;spacingLeft=4;spacingRight=4;overflow=hidden;rotatable=0;points=[[0,0.5],[1,0.5]];portConstraint=eastwest;" parent="6" vertex="1">
                    <mxGeometry y="156" width="140" height="26" as="geometry"/>
                </mxCell>
                <mxCell id="55" value="qtd_estoque: Number" style="text;strokeColor=none;fillColor=none;align=left;verticalAlign=top;spacingLeft=4;spacingRight=4;overflow=hidden;rotatable=0;points=[[0,0.5],[1,0.5]];portConstraint=eastwest;" parent="6" vertex="1">
                    <mxGeometry y="182" width="140" height="26" as="geometry"/>
                </mxCell>
                <mxCell id="9" value="categoria: Categoria" style="text;strokeColor=none;fillColor=none;align=left;verticalAlign=top;spacingLeft=4;spacingRight=4;overflow=hidden;rotatable=0;points=[[0,0.5],[1,0.5]];portConstraint=eastwest;" parent="6" vertex="1">
                    <mxGeometry y="208" width="140" height="26" as="geometry"/>
                </mxCell>
                <mxCell id="10" value="Categoria" style="swimlane;fontStyle=0;childLayout=stackLayout;horizontal=1;startSize=26;fillColor=none;horizontalStack=0;resizeParent=1;resizeParentMax=0;resizeLast=0;collapsible=1;marginBottom=0;" parent="1" vertex="1">
                    <mxGeometry x="500" y="100" width="140" height="78" as="geometry"/>
                </mxCell>
                <mxCell id="11" value="_id: ObjectId" style="text;strokeColor=none;fillColor=none;align=left;verticalAlign=top;spacingLeft=4;spacingRight=4;overflow=hidden;rotatable=0;points=[[0,0.5],[1,0.5]];portConstraint=eastwest;" parent="10" vertex="1">
                    <mxGeometry y="26" width="140" height="26" as="geometry"/>
                </mxCell>
                <mxCell id="12" value="descricao: String" style="text;strokeColor=none;fillColor=none;align=left;verticalAlign=top;spacingLeft=4;spacingRight=4;overflow=hidden;rotatable=0;points=[[0,0.5],[1,0.5]];portConstraint=eastwest;" parent="10" vertex="1">
                    <mxGeometry y="52" width="140" height="26" as="geometry"/>
                </mxCell>
                <mxCell id="14" value="Venda" style="swimlane;fontStyle=0;childLayout=stackLayout;horizontal=1;startSize=26;fillColor=none;horizontalStack=0;resizeParent=1;resizeParentMax=0;resizeLast=0;collapsible=1;marginBottom=0;" parent="1" vertex="1">
                    <mxGeometry x="370" y="620" width="140" height="156" as="geometry"/>
                </mxCell>
                <mxCell id="15" value="_id: ObjectId&#10;" style="text;strokeColor=none;fillColor=none;align=left;verticalAlign=top;spacingLeft=4;spacingRight=4;overflow=hidden;rotatable=0;points=[[0,0.5],[1,0.5]];portConstraint=eastwest;" parent="14" vertex="1">
                    <mxGeometry y="26" width="140" height="26" as="geometry"/>
                </mxCell>
                <mxCell id="16" value="num_venda: Number" style="text;strokeColor=none;fillColor=none;align=left;verticalAlign=top;spacingLeft=4;spacingRight=4;overflow=hidden;rotatable=0;points=[[0,0.5],[1,0.5]];portConstraint=eastwest;" parent="14" vertex="1">
                    <mxGeometry y="52" width="140" height="26" as="geometry"/>
                </mxCell>
                <mxCell id="17" value="data_hora: DateTime" style="text;strokeColor=none;fillColor=none;align=left;verticalAlign=top;spacingLeft=4;spacingRight=4;overflow=hidden;rotatable=0;points=[[0,0.5],[1,0.5]];portConstraint=eastwest;" parent="14" vertex="1">
                    <mxGeometry y="78" width="140" height="26" as="geometry"/>
                </mxCell>
                <mxCell id="53" value="itens: [Produto]" style="text;strokeColor=none;fillColor=none;align=left;verticalAlign=top;spacingLeft=4;spacingRight=4;overflow=hidden;rotatable=0;points=[[0,0.5],[1,0.5]];portConstraint=eastwest;" parent="14" vertex="1">
                    <mxGeometry y="104" width="140" height="26" as="geometry"/>
                </mxCell>
                <mxCell id="54" value="cliente: Cliente" style="text;strokeColor=none;fillColor=none;align=left;verticalAlign=top;spacingLeft=4;spacingRight=4;overflow=hidden;rotatable=0;points=[[0,0.5],[1,0.5]];portConstraint=eastwest;" parent="14" vertex="1">
                    <mxGeometry y="130" width="140" height="26" as="geometry"/>
                </mxCell>
                <mxCell id="18" value="Fornecedor" style="swimlane;fontStyle=0;childLayout=stackLayout;horizontal=1;startSize=26;fillColor=none;horizontalStack=0;resizeParent=1;resizeParentMax=0;resizeLast=0;collapsible=1;marginBottom=0;" parent="1" vertex="1">
                    <mxGeometry x="760" y="270" width="140" height="364" as="geometry"/>
                </mxCell>
                <mxCell id="19" value="_id: ObjectId" style="text;strokeColor=none;fillColor=none;align=left;verticalAlign=top;spacingLeft=4;spacingRight=4;overflow=hidden;rotatable=0;points=[[0,0.5],[1,0.5]];portConstraint=eastwest;" parent="18" vertex="1">
                    <mxGeometry y="26" width="140" height="26" as="geometry"/>
                </mxCell>
                <mxCell id="20" value="razao_social: String" style="text;strokeColor=none;fillColor=none;align=left;verticalAlign=top;spacingLeft=4;spacingRight=4;overflow=hidden;rotatable=0;points=[[0,0.5],[1,0.5]];portConstraint=eastwest;" parent="18" vertex="1">
                    <mxGeometry y="52" width="140" height="26" as="geometry"/>
                </mxCell>
                <mxCell id="21" value="nome_fantasia: String?&#10;" style="text;strokeColor=none;fillColor=none;align=left;verticalAlign=top;spacingLeft=4;spacingRight=4;overflow=hidden;rotatable=0;points=[[0,0.5],[1,0.5]];portConstraint=eastwest;" parent="18" vertex="1">
                    <mxGeometry y="78" width="140" height="26" as="geometry"/>
                </mxCell>
                <mxCell id="56" value="cnpj: String" style="text;strokeColor=none;fillColor=none;align=left;verticalAlign=top;spacingLeft=4;spacingRight=4;overflow=hidden;rotatable=0;points=[[0,0.5],[1,0.5]];portConstraint=eastwest;" parent="18" vertex="1">
                    <mxGeometry y="104" width="140" height="26" as="geometry"/>
                </mxCell>
                <mxCell id="65" value="email: String" style="text;strokeColor=none;fillColor=none;align=left;verticalAlign=top;spacingLeft=4;spacingRight=4;overflow=hidden;rotatable=0;points=[[0,0.5],[1,0.5]];portConstraint=eastwest;" parent="18" vertex="1">
                    <mxGeometry y="130" width="140" height="26" as="geometry"/>
                </mxCell>
                <mxCell id="66" value="logradouro: String" style="text;strokeColor=none;fillColor=none;align=left;verticalAlign=top;spacingLeft=4;spacingRight=4;overflow=hidden;rotatable=0;points=[[0,0.5],[1,0.5]];portConstraint=eastwest;" parent="18" vertex="1">
                    <mxGeometry y="156" width="140" height="26" as="geometry"/>
                </mxCell>
                <mxCell id="67" value="num_casa: String" style="text;strokeColor=none;fillColor=none;align=left;verticalAlign=top;spacingLeft=4;spacingRight=4;overflow=hidden;rotatable=0;points=[[0,0.5],[1,0.5]];portConstraint=eastwest;" parent="18" vertex="1">
                    <mxGeometry y="182" width="140" height="26" as="geometry"/>
                </mxCell>
                <mxCell id="68" value="complemento: String?" style="text;strokeColor=none;fillColor=none;align=left;verticalAlign=top;spacingLeft=4;spacingRight=4;overflow=hidden;rotatable=0;points=[[0,0.5],[1,0.5]];portConstraint=eastwest;" parent="18" vertex="1">
                    <mxGeometry y="208" width="140" height="26" as="geometry"/>
                </mxCell>
                <mxCell id="69" value="bairro: String" style="text;strokeColor=none;fillColor=none;align=left;verticalAlign=top;spacingLeft=4;spacingRight=4;overflow=hidden;rotatable=0;points=[[0,0.5],[1,0.5]];portConstraint=eastwest;" parent="18" vertex="1">
                    <mxGeometry y="234" width="140" height="26" as="geometry"/>
                </mxCell>
                <mxCell id="75" value="municipio: String" style="text;strokeColor=none;fillColor=none;align=left;verticalAlign=top;spacingLeft=4;spacingRight=4;overflow=hidden;rotatable=0;points=[[0,0.5],[1,0.5]];portConstraint=eastwest;" parent="18" vertex="1">
                    <mxGeometry y="260" width="140" height="26" as="geometry"/>
                </mxCell>
                <mxCell id="78" value="celular: String" style="text;strokeColor=none;fillColor=none;align=left;verticalAlign=top;spacingLeft=4;spacingRight=4;overflow=hidden;rotatable=0;points=[[0,0.5],[1,0.5]];portConstraint=eastwest;" parent="18" vertex="1">
                    <mxGeometry y="286" width="140" height="26" as="geometry"/>
                </mxCell>
                <mxCell id="77" value="cep: String" style="text;strokeColor=none;fillColor=none;align=left;verticalAlign=top;spacingLeft=4;spacingRight=4;overflow=hidden;rotatable=0;points=[[0,0.5],[1,0.5]];portConstraint=eastwest;" parent="18" vertex="1">
                    <mxGeometry y="312" width="140" height="26" as="geometry"/>
                </mxCell>
                <mxCell id="76" value="uf: String" style="text;strokeColor=none;fillColor=none;align=left;verticalAlign=top;spacingLeft=4;spacingRight=4;overflow=hidden;rotatable=0;points=[[0,0.5],[1,0.5]];portConstraint=eastwest;" parent="18" vertex="1">
                    <mxGeometry y="338" width="140" height="26" as="geometry"/>
                </mxCell>
                <mxCell id="23" value="" style="endArrow=diamondThin;endFill=1;endSize=24;html=1;exitX=0.5;exitY=0;exitDx=0;exitDy=0;entryX=0.25;entryY=0;entryDx=0;entryDy=0;" parent="1" source="2" target="14" edge="1">
                    <mxGeometry width="160" relative="1" as="geometry">
                        <mxPoint x="320" y="450" as="sourcePoint"/>
                        <mxPoint x="480" y="450" as="targetPoint"/>
                        <Array as="points">
                            <mxPoint x="275" y="280"/>
                            <mxPoint x="405" y="280"/>
                        </Array>
                    </mxGeometry>
                </mxCell>
                <mxCell id="30" value="1" style="edgeLabel;html=1;align=center;verticalAlign=middle;resizable=0;points=[];" parent="23" vertex="1" connectable="0">
                    <mxGeometry x="-0.9366" y="1" relative="1" as="geometry">
                        <mxPoint x="11" as="offset"/>
                    </mxGeometry>
                </mxCell>
                <mxCell id="31" value="0..*" style="edgeLabel;html=1;align=center;verticalAlign=middle;resizable=0;points=[];" parent="23" vertex="1" connectable="0">
                    <mxGeometry x="0.7937" y="-1" relative="1" as="geometry">
                        <mxPoint x="16" as="offset"/>
                    </mxGeometry>
                </mxCell>
                <mxCell id="25" value="" style="endArrow=diamondThin;endFill=1;endSize=24;html=1;exitX=0.75;exitY=0;exitDx=0;exitDy=0;entryX=0.5;entryY=0;entryDx=0;entryDy=0;" parent="1" source="6" target="79" edge="1">
                    <mxGeometry width="160" relative="1" as="geometry">
                        <mxPoint x="630" y="420" as="sourcePoint"/>
                        <mxPoint x="790" y="420" as="targetPoint"/>
                        <Array as="points">
                            <mxPoint x="605" y="250"/>
                            <mxPoint x="680" y="250"/>
                            <mxPoint x="680" y="580"/>
                            <mxPoint x="680" y="610"/>
                        </Array>
                    </mxGeometry>
                </mxCell>
                <mxCell id="34" value="1..*" style="edgeLabel;html=1;align=center;verticalAlign=middle;resizable=0;points=[];" parent="25" vertex="1" connectable="0">
                    <mxGeometry x="-0.8827" relative="1" as="geometry">
                        <mxPoint x="5" y="10" as="offset"/>
                    </mxGeometry>
                </mxCell>
                <mxCell id="35" value="0..*" style="edgeLabel;html=1;align=center;verticalAlign=middle;resizable=0;points=[];" parent="25" vertex="1" connectable="0">
                    <mxGeometry x="0.8603" y="-2" relative="1" as="geometry">
                        <mxPoint x="22" y="10" as="offset"/>
                    </mxGeometry>
                </mxCell>
                <mxCell id="26" value="" style="endArrow=diamondThin;endFill=1;endSize=24;html=1;entryX=0.25;entryY=0;entryDx=0;entryDy=0;exitX=0.25;exitY=0;exitDx=0;exitDy=0;" parent="1" source="10" target="6" edge="1">
                    <mxGeometry width="160" relative="1" as="geometry">
                        <mxPoint x="320" y="190" as="sourcePoint"/>
                        <mxPoint x="480" y="190" as="targetPoint"/>
                        <Array as="points">
                            <mxPoint x="535" y="80"/>
                            <mxPoint x="480" y="80"/>
                            <mxPoint x="480" y="230"/>
                            <mxPoint x="535" y="230"/>
                        </Array>
                    </mxGeometry>
                </mxCell>
                <mxCell id="32" value="0..*" style="edgeLabel;html=1;align=center;verticalAlign=middle;resizable=0;points=[];" parent="26" vertex="1" connectable="0">
                    <mxGeometry x="0.8069" relative="1" as="geometry">
                        <mxPoint x="-25" y="11" as="offset"/>
                    </mxGeometry>
                </mxCell>
                <mxCell id="37" value="1" style="edgeLabel;html=1;align=center;verticalAlign=middle;resizable=0;points=[];" parent="26" vertex="1" connectable="0">
                    <mxGeometry x="-0.8179" relative="1" as="geometry">
                        <mxPoint y="10" as="offset"/>
                    </mxGeometry>
                </mxCell>
                <mxCell id="27" value="" style="endArrow=diamondThin;endFill=1;endSize=24;html=1;entryX=0.5;entryY=0;entryDx=0;entryDy=0;exitX=0.5;exitY=0;exitDx=0;exitDy=0;" parent="1" source="18" target="6" edge="1">
                    <mxGeometry width="160" relative="1" as="geometry">
                        <mxPoint x="520" y="250" as="sourcePoint"/>
                        <mxPoint x="680" y="250" as="targetPoint"/>
                        <Array as="points">
                            <mxPoint x="830" y="230"/>
                            <mxPoint x="570" y="230"/>
                        </Array>
                    </mxGeometry>
                </mxCell>
                <mxCell id="33" value="0..*" style="edgeLabel;html=1;align=center;verticalAlign=middle;resizable=0;points=[];" parent="27" vertex="1" connectable="0">
                    <mxGeometry x="0.6484" y="-1" relative="1" as="geometry">
                        <mxPoint y="-9" as="offset"/>
                    </mxGeometry>
                </mxCell>
                <mxCell id="36" value="1" style="edgeLabel;html=1;align=center;verticalAlign=middle;resizable=0;points=[];" parent="27" vertex="1" connectable="0">
                    <mxGeometry x="-0.9231" y="1" relative="1" as="geometry">
                        <mxPoint x="11" as="offset"/>
                    </mxGeometry>
                </mxCell>
                <mxCell id="79" value="ItensVenda" style="swimlane;fontStyle=0;childLayout=stackLayout;horizontal=1;startSize=26;fillColor=none;horizontalStack=0;resizeParent=1;resizeParentMax=0;resizeLast=0;collapsible=1;marginBottom=0;" vertex="1" parent="1">
                    <mxGeometry x="610" y="666" width="140" height="110" as="geometry"/>
                </mxCell>
                <mxCell id="80" value="num_item: Number&#10;&#10;quantidade:Number&#10;&#10;produto: Produto&#10;&#10;" style="text;strokeColor=none;fillColor=none;align=left;verticalAlign=top;spacingLeft=4;spacingRight=4;overflow=hidden;rotatable=0;points=[[0,0.5],[1,0.5]];portConstraint=eastwest;" vertex="1" parent="79">
                    <mxGeometry y="26" width="140" height="84" as="geometry"/>
                </mxCell>
                <mxCell id="87" value="" style="endArrow=diamondThin;endFill=1;endSize=24;html=1;exitX=0.604;exitY=-0.009;exitDx=0;exitDy=0;exitPerimeter=0;" edge="1" parent="1" source="14">
                    <mxGeometry width="160" relative="1" as="geometry">
                        <mxPoint x="400" y="540" as="sourcePoint"/>
                        <mxPoint x="650" y="660" as="targetPoint"/>
                        <Array as="points">
                            <mxPoint x="455" y="540"/>
                            <mxPoint x="650" y="540"/>
                        </Array>
                    </mxGeometry>
                </mxCell>
                <mxCell id="88" value="0..*" style="edgeLabel;html=1;align=center;verticalAlign=middle;resizable=0;points=[];" vertex="1" connectable="0" parent="1">
                    <mxGeometry x="710" y="666" as="geometry">
                        <mxPoint x="-83" y="-29" as="offset"/>
                    </mxGeometry>
                </mxCell>
                <mxCell id="89" value="1" style="edgeLabel;html=1;align=center;verticalAlign=middle;resizable=0;points=[];" vertex="1" connectable="0" parent="1">
                    <mxGeometry x="430" y="575" as="geometry">
                        <mxPoint x="10" y="27" as="offset"/>
                    </mxGeometry>
                </mxCell>
                <mxCell id="94" value="" style="shape=stencil(lZzZshzHDUS/hq8dtS/PsvwfihBlMkyTCory8vdGma6504np09IbdQVMV9cCJBJZ/S7/8NuHn359/y6F3759/fL39//6+PO3D+/yX96l9PHzh/dfP36zf73LP77LP/zy5ev7v3398vvnn7//968/Lcv1r398+ef6hX9/90vj6GV5pfCf73+JRx3/+8Nfv9t/+vj52b4fcYp9T2Bfj3K2T0fIYF+ONMQ+V7BPx8hij+OJRzrb5yPCeOI82hD7FsB+HKmf7Av/fj9CEPsG8x/rMc/29UgN7Msxs9gPGs9juNu+HSWCfTpmOtn3o8J6mX0429sGpPG49Zr7ga/tw9FkP8cjTHSI5wFF3nG2IeQAZNxx88jy+xV3xDhmPdu3o6F9k98fN7+fzxNqW7zC+O3XzhOawjFgQoduaDuR/1+Sl/ZdN7SdsAknrO/98rDnE9CPIuNvx4D17bof7I1Kv7ZvRz8f+PzYURf25fz7OR4NTljb2/dhn/AE1KPHs72FVJj/euR2tq9HhfcteuDzIyVc2BcJuBMzQNaAVcL+y4V9PY+/JIyg+cjn+Sllh5gLe0l4pe6UeWUvv88RMR/hvD/L3G/0OoMd8/y+Ne6IdGV/Hk+1eIX24/y+tR4Nx9PPCbJ2RhB7tz/s7X1hPpOel2YIhRDEkc7xpHF8jsc8v29rO0Vd2AvgaGOfoAt7yRfd4if+viSwbimTEMHODg/7fDee8/7pBePzA9897CueRzc/vR+J5/+8f/o4KsTDdMRzfuyTEd+OZg/AEXeEvDq/AlAy4gHbXef5HGVn8Kt4eN6fgxFW3av/sLeMCfHZotN5fsbcEe8qHwnACkeG/dYVD8x4Yy/7YSbMF+MY5/mcGfePRY+p9gPmxwBfOW+IWfZPXEFQQRCz4o4wACk1z2x8hLNiIHPoVGWUY0R1oE1hmLPLkDhrG+jUJ/S9ca8KGV23jnnMYKcARXPAg2y4yj1hUKSw2sG9NEG/VWsW5wDTaoe/uHcYlPzKrh6fHCa9Q9tg6dmBC3Q9D2MjjNcO80jROcBL50f+enaAhTPAmt06IKTLmpPX1oC9tCCr33wUtLuianNI9NJjg46nE0crbSh3uiNaKC9YGHVBIMCJK0mRwrxB7nnHiCcHKhUN6QoZM5mdKM0Nqezd9drBVYsWvTvN0tzJ5skhwzvUoATXTFi/VoNbTR1o4QxPa0J5YMrXDsVtjYgQuDYXZuKOha8dHnHuKakT7WMYPBV1IJTdggtkYW+W1w6O+Jk3dXLetMSTA4WZVpW6Wg5wgNrjBP9Rh6Fk4HKA7W1QX5HAjUPS6vTmpbvj65YDLNxC726l0aG7A3TjMF8gSspAI7i4xE8YaSPmP7hwIyv8MVBMWXRUreKXA71D25DwyYHyg6H40tShQ/QeY0ehJwcqtBfud0/IhKTtBMsTBqJKi0JamwyMGiswSvHTMVRa6JXq2RwyrINlAwHrg+lTS1CCKm3tCSSawwjqQNvbkqwwGKNg9J6uJLMNn2F7L+wiu5WD8UKp53foTBobwhMWbMUR2hpDX7pnhHDLQXiDiJ0Bc1CiZyKxsjDkOcy0jkzqmlZ5QkOQuBZOnlA2O3+1NWR7twe9d7X5JHq3yCttW+08pMp0vx2gKg0mLjjsiMqQ6s2JS7rSte5nXkYNeULZefXKQUCiYTScJQcSa8To/ZZvHg4BOQELvbKXDPpSiT/cASp9h+erhCJElKHxSPmhadotN52ptrHLE3VOgcxnUStBKJBZYNRuaMITZ4FR2K7C7b4RFUrnm7QbXD9l7gLhykHewWrHBEMyvCRVllWndB4WQXrerdlOHLxD78rhWsFML92b4qVckJvpVVk+q+FxSEUrlHzTJszKL+WItJ1BaUH3mUsayzfS+UgcKg3dS1xKA1kHcwjnl04d80NzZVlq2LyxCqWIfKIiwLIU2Lo6EDG4iibp1xbkr1vVlV4SCjhAljOHDCkho26Vog4pYcuzuajx1nV57eCaJuYQqVIMSkilgGB9ZeWsDpFYh7F/bzvEuTtxV5yACgUmMrorjYvSYTCvUbU1H7kcsDQuiCwyk7hal/LSnbmZpDR2bMi3Vte+MgeK3jVo1IjcLzUH4ZfMgVLWorxE0lJwLxmySLLSGaF06Yr5zIFynCELqbJiQhHGYhJlpVlnZkBBFy5gWWZAIXd1QOoxOgoYy4cStNidyLZa1pdG/dydsytKWsilgaRgdlVix/FnR+Z21mEU5aMbYmhL+BLBKvZ/shMOFG4KRBVGFcTDlu2FZc2sG5gqTEjcypkqpEoI6NfyS5babZHX9l4Ixo2f4QIRopf1+xLpNjq5Gn84H7CAZV5ysDYg9l/HqYo9hcV1XJ097f+gjeuwq5MreyEZAzYazL6pPeqQgsuWd+OR+o4j6BqPU95SPAkOgewAc2Wf9PcpyeSg1SP3YWx9u9pjp3RqwZywxlnnUWAmVl1paFMyYf9i2UtSxYpo2UvGw/y1zqPuNyLYkmMgAsK/NZ96vih/rfVy5/FmPzh7yhd/1j7q+gastSwfBV0vWt/slOcR8XfOrobYtdpV/pVSLrNOsSqIK6ibMfwgLEJBRje7+qGi7tDwj+T3hjqk1TCvYk/qDsNjUiZ2JKOK6+t21JkVh2cGinhK0dbd2CD5ChJr84Tft7l+KCPorh1aA8QkDLSywUvnCaGswkQQR+Ka1YvzM/exo2LcVclQpzw5dXvBl17EcFcHIhtq0QsJsSIZbVVxciUoJWKruwWomAPRSlbZa0XZscu8GH3nQHu1+tzESqo6la1bF2OIwwkqKzcHkmm2pLrpODHeNSfkjsz8NlcAJVZGNtfoS0xGt6Y94KWepXdwTeMlp2bFgoDYlHGlXzCOBfmPNlW/myri2B6U9FkUJV3gcIroxNKrnjTyrdKYuWVJbSsWE1VcXK04+QlVHTKrwHtTWbfhGWJ+e9dZeiuwr7oIMkuZWaKl65CbLiycXU3o87QaRqEDNByhbiCFMNhwchlDKQSqhgNh+aYNVxTFG06hNL2aZEJT8EqPrsKoEjHHDSfIMWhDSGa41vpqw9GQpiaUdUeGel7TcTkVL01NVyyXjtX7jK4dOpCyn0nTrqEPws9LFugv1lAPOKu+5o1tvnLQqzWZRRRFo/cbmLhy0NuejQU5VW9HWKqnqmo2vc5oqZ7i0uyap1vcSezKYYhD3pXcawd3A9ISMcGf6ZipdrP5plIvlvWIy4rBNYF7ZFGEq34sx1C5YQ56z6aySGhqp683VoJMBRv9IRu6clCREDeMprvrMW7O6NAUNCLCmTft+8MhIZZeunFxyFjmTqeiGAVh5TpB8oSKiXqJhESWx7dDptMXD76St0RC4jCw8puuahrc3JiuOzM4jU5/6Yar16VXdppQ4sOG67guOSM5DCWozQGzomurLWESOTSdpZu7VV5gc+fghLDLgcCGl9pGxg5ezBvv5C8qF2ZJ2wtB8s0TvOT5xsGLqm8cvGw7YjB+IQyPfEvPS88jtiOWTsM/gWQXVS9WzogE8RLou5UmJmSV7G5IKH9x2qvJHKthET1ACYXhtbubRiw4W3jK3Q6h6/uG2KTtZ8ETyZmseXppmumlkwZjc0AKy5VZlgBuiD5d6cK98uHulFVU5JTmLqwwu7zqCzkPDbnH4nTe5oD8aXLX3BqiGSvb9B5Qx2D8QlHAACv7IPAQQV9x9tLzmYObhtVd4Bp8za2421ITRaQ5ucQ++X51cFtj8gXxqbTDG/R97eCY8slSqheXMif3Mv21z4mc14uLpRM3X3LE951DdFHjxsF/KCfwrZvoWOObR8SuLcTlQN8a8PcNmYdb2iy/1BDJltTK7z66ae3aRnPy9xiSu7A78f5tjCp3nMxh+W8i3Vw6ni8uKROl68NSwyPtPwlQUerUXeguuMoeRt8kRJVSLi6IspUbP3+Cpby4+kg0TnYV4mCpjVOOdZbOaPiyOoKqaHedYmQ8A0Hn56ZKD0rgLBoA7SWF9IHrG3aZ9kRkEAkQFP73hjnNKROsgKBLzE4Jc/PJlldkEl1GDEp69IAYNShEbZySHa9vxQZdpAraJ258fydoRGwJYU5wSoNws17CtdWB59Fdc6yPj3hd2EsltYTO+Pt6RyttyufCXua/BpzPqHyn4fNMGUbjj8Fzqg+iKoUMbFM8jxqvDGvT/Lir4yXgfktOOcPxISllkbl/7sDZm7b2wl60zKvTRlIP5VEXaKYvQagyJLN0rCjtmviuctXxpMGqe+W9VsMWP0Gn9zcq95zdJwYLKiqaVkFvaPkKP5znc0UA2G9NIV+c/PEErSwN+FI87/se38OePyXS3dWQgufFfYTDQCyyiEq1RpYtTF853HxiUzpAA6cnBo0nnfFw3P/7kS+QYInJ5QvcPjErbVWQ645F811BLjB6MQHSBrZbpH3FtzDj0Jo+YYtv7XZVthOHtk6TaK6w4b3wrdoT754cfRv4K05V6wWGS6kr6x5QebTqoyb2VDcnp5zkj4Z4pTErY18ph0mFt+ynvi8rt6O+L4WrV8rku5sFOn4KP8n1JSPP53QCPLwSmZxcgnsqaSje4I64/yQefy7oT3/T+9be/vH2AfFfPn769P3748//Xz84bn/6/rHy/ON/AQ==);lineShape=1;" vertex="1" parent="1">
                    <mxGeometry x="345.2723357262853" y="513.3839548317944" width="484.48354763071586" height="312.2408472621256" as="geometry"/>
                </mxCell>
            </root>
        </mxGraphModel>
    </diagram>
</mxfile>